<?xml version="1.0" encoding="utf-8"?>
<!-- Generator: Adobe Illustrator 23.0.1, SVG Export Plug-In . SVG Version: 6.00 Build 0)  -->
<svg version="1.1" id="Layer_1" xmlns="http://www.w3.org/2000/svg" xmlns:xlink="http://www.w3.org/1999/xlink" x="0px" y="0px"
	 viewBox="0 0 600 300" style="enable-background:new 0 0 600 300;" xml:space="preserve">
<style type="text/css">
	.st0{fill:#E6E7E8;stroke:#231F20;stroke-linecap:round;stroke-miterlimit:10;}
</style>
<circle class="st0" cx="328.8" cy="148.8" r="88.8"/>
<path class="st0" d="M553,47C511,5,457.5-11,427.8,7.8c-11.1-5-23.5-7.8-36.5-7.8c-23.1,0-44.2,8.9-60,23.4
	C315.4,8.9,294.4,0,271.2,0c-27.7,0-52.4,12.7-68.6,32.5c-13.8-15.5-37.8-25.7-65-25.7C94.7,6.8,60,32.1,60,63.4
	c0,13.4,6.4,25.8,17.1,35.5C66.4,113.5,60,131.6,60,151.2c0,16.8,4.7,32.5,12.7,45.8c-8.2,9.3-12.7,19.8-12.7,30.8
	c0,39.8,59.8,72.1,133.5,72.1c33.6,0,64.4-6.7,87.8-17.8c14.2,9.7,31.4,15.3,49.9,15.3c23.1,0,44.2-8.9,60-23.4
	c15.8,14.5,36.9,23.4,60,23.4c49,0,88.8-39.7,88.8-88.8c0-5.5-0.5-10.8-1.4-16c19.2,2.4,36.2-1.6,47.7-13.1
	C613.7,152.2,598.8,92.8,553,47z"/>
</svg>
